{"title":"Zach &amp; Walker's Concrete Jungle [2008][skateboarding].avi","uid":4693253,"size":344578560,"categoryP":"video","categoryS":"movies","magnet":"?xt=urn:btih:3a0c88d9384bbe7d95c9373233281175b192a942&amp;dn=Zach+%26+Walker%5C%27s+Concrete+Jungle+%5B2008%5D%5Bskateboarding%5D.avi&amp;tr=udp%3A%2F%2Ftracker.openbittorrent.com%3A80&amp;tr=udp%3A%2F%2Fopen.demonii.com%3A1337&amp;tr=udp%3A%2F%2Ftracker.coppersurfer.tk%3A6969&amp;tr=udp%3A%2F%2Fexodus.desync.com%3A6969","seeders":0,"leechers":1,"uploader":"highateus","files":1,"time":1233468078,"description":"Organika drops a free promo vid. This one is for the two newest team members, Zach Lyons and Walker Ryan. All the other Organikans (Karl Watson, Quim Cardona, Adelmo Jr. and Rodrigo Peterson) are in here with small cameos, but its focused around Zach &amp; Walker. released Dec. 12, 2008\n\n\n\nGeneral\n\nComplete name                    : Organika - Zach &amp; Walker's Concrete Jungle \n                                   [2008].avi\nFormat                           : AVI\nFormat/Info                      : Audio Video Interleave\nFile size                        : 329 MiB\nDuration                         : 12mn 55s\nOverall bit rate                 : 3552 Kbps\n\n\nVideo\n\nFormat                           : MPEG-4 Visual\nFormat profile                   : Streaming Video@L1\nFormat settings, BVOP            : Yes\nFormat settings, QPel            : No\nFormat settings, GMC             : No warppoints\nFormat settings, Matrix          : Default\nMuxing mode                      : Packed bitstream\nCodec ID                         : XVID\nCodec ID/Hint                    : XviD\nDuration                         : 12mn 55s\nBit rate                         : 3 349 Kbps\nWidth                            : 720 pixels\nHeight                           : 480 pixels\nDisplay aspect ratio             : 1.500\nFrame rate                       : 29.970 fps\nStandard                         : NTSC\nResolution                       : 24 bits\nColorimetry                      : 4:2:0\nScan type                        : Progressive\nBits/(Pixel*Frame)               : 0.323\nStream size                      : 310 MiB (94%)\nWriting library                  : XviD 1.1.2 (UTC 2006-11-01)\n\n\nAudio\n\nFormat                           : MPEG Audio\nFormat version                   : Version 1\nFormat profile                   : Layer 3\nCodec ID                         : 55\nCodec ID/Hint                    : MP3\nDuration                         : 12mn 55s\nBit rate mode                    : Constant\nBit rate                         : 192 Kbps\nChannel(s)                       : 2 channels\nSampling rate                    : 44.1 KHz\nResolution                       : 16 bits\nVideo delay                      : 26ms\nStream size                      : 17.8 MiB (5%)\nAlignment                        : Split accross interleaves\nInterleave, duration             : 33 ms (1.00 video frame)\nTitle                            : Audio Stream\nWriting library                  : LAME3.92","torrent":{"xt":"urn:btih:3a0c88d9384bbe7d95c9373233281175b192a942","amp;dn":"Zach+%26+Walker%5C%27s+Concrete+Jungle+%5B2008%5D%5Bskateboarding%5D.avi","amp;tr":["udp%3A%2F%2Ftracker.openbittorrent.com%3A80","udp%3A%2F%2Fopen.demonii.com%3A1337","udp%3A%2F%2Ftracker.coppersurfer.tk%3A6969","udp%3A%2F%2Fexodus.desync.com%3A6969"],"infoHash":"3a0c88d9384bbe7d95c9373233281175b192a942","infoHashBuffer":{"type":"Buffer","data":[58,12,136,217,56,75,190,125,149,201,55,50,51,40,17,117,177,146,169,66]},"announce":[],"urlList":[]}}